<svg xmlns="http://www.w3.org/2000/svg" width="114.59mm" height="125.4mm" viewBox="0 0 324.83 355.47">
  <title>MINCULT_RUS_GORIZ_RGB</title>
  <path d="M88.12,191.06l3-6.35-1.91-.87-4.08,5.23.49,2.28ZM103,192.78l.11-6.2-2.16-.27-1.51,5.91,1.41,1.88Zm120.63,1.31,1.4-1.88-1.52-5.91-2.17.27.13,6.2Zm15.21-2.74.51-2.28-4.08-5.23-1.88.87,2.93,6.35Zm9.34-9.74-.72-2.25L241,176.69l-1,2,5.8,4ZM75.71,152.54l.53,2.48,6.58,2.37,1-1.89-5.89-3.67Zm6,13.54-6.9-.9L73,166.75l1.51,2,7-.55Zm-4.31,13.27-.72,2.25,2.29,1,5.78-4-.94-2ZM248.6,155l.52-2.48-2.25-.71L241,155.5l1,1.89Zm76,2.83a30,30,0,0,0-6.7-2.51,38.27,38.27,0,0,0-7.93-.59,33.5,33.5,0,0,0,5.25-2.41c8.58-5.21,9.62-15.11,9.62-15.11s-5.09-.5-7.94-.47a57,57,0,0,0-9.6.74,24.31,24.31,0,0,0,7.9-5.42c6.66-6.49,5.63-15.92,5.63-15.92a16.19,16.19,0,0,0-6.26-.51c-3.15.27-4.27.63-5.76,1.44,5.76-6.49,6.53-10.49,7.16-14.81,1-6.54-1.34-11.24-1.88-11.57a18.68,18.68,0,0,0-6.67,3.59c-4.29,3.29-10.3,8.85-10.3,8.85a26.71,26.71,0,0,0,3.34-5.37c7.47-15.22,6.61-27.22,4.63-30.8-2.14-3.95-6.29-4.18-8.2-1.29-1.45,2.15-5.71,11.35-9.19,17.92a162.74,162.74,0,0,1-15.56,24c-1.63-3.47-3.21-1-3.21-1s-2.43,4.1-5.14,8.6a42.51,42.51,0,0,1-7.65,9.13,15.39,15.39,0,0,0-5-4.05l-.76.76s-17.82,18.63-23.31,25.84-1.38,10.68,2.62,16.57,2.26,12.72-6,16c-7.12,2.8-12.1.24-14.11-3.24,5.24-2.17,10.53-7.46,10.56-14.73a18.55,18.55,0,0,0-.39-3.78,15.33,15.33,0,0,0-15.26-12.63,17.87,17.87,0,0,0-7.52,1.7,14.41,14.41,0,0,0-3.49,2.28s-.28.23-.68.59c-3.35-6.12-3.11-10.89,1-18.81a30.42,30.42,0,0,1,12-12.3l1.7,1.38s0-.62,3.62-2.29,7.46-1.21,10.35,2.13a11.15,11.15,0,0,1,2.43,7A12,12,0,0,0,227.1,122a7.1,7.1,0,0,0-.22-4.65s3,1.13,6.2,2.46c3,1.2,8.31,3.11,13-1a11.54,11.54,0,0,0,3.81-9.88,12.93,12.93,0,0,1-8.07,5.17c-4,.78-8.34-1.52-11.56-2.9a36.27,36.27,0,0,0-7.44-2s3.8-3.23,10.38-1.23c4.84,1.48,5.43,3.36,5.43,3.36a14.21,14.21,0,0,0,4.12-5.48c1.67-3.94.6-7.44-2.28-10.19S232,91.45,232,91.45s1-1.49-1-2.12c-1.7-.57-3.42-1-3.42-1a5.59,5.59,0,0,0-3.23-6.67c-7.48-3.39-19.42,2.89-32.4,4.74-8.77,1.24-12.49-1.43-12.49-1.43a10.32,10.32,0,0,0,2.43,3.82,22.13,22.13,0,0,0,5.73,4.52,18.33,18.33,0,0,1-4.73.15c-2.11-.29-5.9-1.21-5.9-1.21a14.24,14.24,0,0,0,3.5,3.64,27.75,27.75,0,0,0,4.7,2.75,71.21,71.21,0,0,1-8.81,3.65c-4,1.22-10.65,1.36-10.65,1.36A16.85,16.85,0,0,0,171,107a21.34,21.34,0,0,0,4.57,1.36,68.9,68.9,0,0,0-5.76,9.27c-2.13,4-5.44,11.66-7.27,15.91-1.8-4.24-5.13-11.89-7.23-15.91a67.94,67.94,0,0,0-5.78-9.27,21.21,21.21,0,0,0,4.56-1.36,16.59,16.59,0,0,0,5.31-3.35s-6.67-.14-10.63-1.36A70.59,70.59,0,0,1,140,98.61a27,27,0,0,0,4.68-2.75,13.77,13.77,0,0,0,3.5-3.64s-3.79.92-5.92,1.21a18.14,18.14,0,0,1-4.71-.15,22.41,22.41,0,0,0,5.73-4.52,10.43,10.43,0,0,0,2.41-3.82s-3.73,2.67-12.48,1.43c-13-1.85-24.91-8.13-32.41-4.74a5.6,5.6,0,0,0-3.21,6.67s-1.73.46-3.43,1c-2,.63-1,2.12-1,2.12S87.45,93,84.64,95.7s-4,6.25-2.28,10.19a14,14,0,0,0,4.1,5.48s.59-1.88,5.43-3.36c6.58-2,10.39,1.23,10.39,1.23a36.59,36.59,0,0,0-7.46,2c-3.2,1.38-7.53,3.68-11.55,2.9a12.92,12.92,0,0,1-8.06-5.17,11.58,11.58,0,0,0,3.8,9.88c4.72,4.09,10,2.18,13,1,3.24-1.33,6.19-2.46,6.19-2.46A7.08,7.08,0,0,0,98,122a11.8,11.8,0,0,0,3.19,4.72,11,11,0,0,1,2.42-7A8.3,8.3,0,0,1,114,117.59c3.63,1.67,3.63,2.29,3.63,2.29l1.68-1.38a30.5,30.5,0,0,1,12,12.3c4.12,7.95,4.5,12.5,1.09,18.65-.09-.07-.25-.25-.33-.31a19.87,19.87,0,0,0-4.28-2.39,18.07,18.07,0,0,0-7.55-1.7A15.28,15.28,0,0,0,105,157.67a17.83,17.83,0,0,0-.4,3.8,15.57,15.57,0,0,0,10.6,14.74c-2,3.49-7,6-14.13,3.23-8.26-3.26-10-10.1-6-16s8.11-9.36,2.61-16.57S74.4,121,74.4,121l-.76-.76a15.63,15.63,0,0,0-5,4.05A42.78,42.78,0,0,1,61,115.2c-2.69-4.5-5.13-8.6-5.13-8.6s-1.57-2.44-3.21,1a164.76,164.76,0,0,1-15.56-24C33.64,77,29.38,67.82,27.92,65.68,26,62.79,21.86,63,19.73,67c-2,3.59-2.83,15.58,4.64,30.8a26.42,26.42,0,0,0,3.32,5.37s-6-5.55-10.26-8.85a18.89,18.89,0,0,0-6.69-3.59c-.54.33-2.84,5-1.89,11.57.64,4.32,1.39,8.32,7.17,14.81-1.49-.81-2.62-1.17-5.78-1.44a16.25,16.25,0,0,0-6.26.51s-1,9.44,5.65,15.92a24,24,0,0,0,7.88,5.42,56.58,56.58,0,0,0-9.58-.74c-2.85,0-7.94.47-7.94.47s1,9.9,9.63,15.11a33.35,33.35,0,0,0,5.23,2.41,38.32,38.32,0,0,0-7.92.59,29.92,29.92,0,0,0-6.69,2.51s3.42,9,12.15,12.16a17.54,17.54,0,0,0,4.31,1.31,38.14,38.14,0,0,0-7.63,2.84,28.73,28.73,0,0,0-5.43,3.76s4.45,8.19,12.67,9.66c.07,0,.73.12,1.35.27a37.94,37.94,0,0,0-6,4.77,29.39,29.39,0,0,0-4.09,5.83s6.89,7.18,16.85,6A19.82,19.82,0,0,0,22,207.85a24.71,24.71,0,0,0-2.73,8s7.53,4,15.93,1.37a14.78,14.78,0,0,0-1.24,3.07,49.72,49.72,0,0,0-.87,8.37s9.11,2.7,17-3.09a14.14,14.14,0,0,0-1.06,4.62,50.37,50.37,0,0,0,.43,8.39s9.88,1.16,16.84-6.06l.55-.59a15.6,15.6,0,0,0-.12,2.54,49.18,49.18,0,0,0,1.63,8.24s9.94-.26,15.79-8.43A19.62,19.62,0,0,0,85.61,232a19.33,19.33,0,0,0,1.09,5.64,29.28,29.28,0,0,0,2.85,5.52s8.19-2.52,11.17-10.65A39.16,39.16,0,0,0,102.6,220c.49.51.81.8.81.8a12.79,12.79,0,0,0,5.32-3.43,77.9,77.9,0,0,0-3.18,21.18c0,1.82.08,3.67.25,5.54a37.13,37.13,0,0,0,1.6,9.27,34,34,0,0,1-2.83,4.43,8.2,8.2,0,0,0-2.46,6.28,3.38,3.38,0,0,0,2.89,3s-.3,3,.75,4.46A6.17,6.17,0,0,0,109,273.7l2.35.57s.47,3.38,1.62,4.17a21.8,21.8,0,0,0,4.85,2c.85.29,2.4,1.39,3.41,1.87,1.57.75,3.81.42,5.93-.72,1.39-.79,1.64-2.93,1.57-3.47.69.31.8.33,1.45.59,2.25.89,4,1.87,4.07,2.26,1.06,1.74,1.69,6.08,2.15,9.13.23,1.33.08,3.15,1,5l.27.43-.72.27a32.31,32.31,0,0,0-8,4.08c-2.87,2.05-6.34,7.63-10.73,8.67-3.85.91-6.7-.86-7-3.26a20.11,20.11,0,0,1-.25-3.62s-5.27,3.11-5.67,6.88a7,7,0,0,0,3.77,6.95s-7,6.72-4.81,12.53c1.89,5,3.19,7.14,3.52,9a4.32,4.32,0,0,1-.5,3.1s3.52.41,4.33-4.4c.53-3,1.31-4.44,2-5.3a3.5,3.5,0,0,0,.76-1.27,24.68,24.68,0,0,0,.72,7.57c1,3.26,4.76,6.47,10,6.92a17,17,0,0,0,9.14-2.31s4,5.39,9.55,6.16a23.92,23.92,0,0,0,11.11-1,40.08,40.08,0,0,0,2.9,4.48,22.6,22.6,0,0,0,3.39,3.47l1.78,1s2.1-2,3.49-3.74a42.12,42.12,0,0,0,3.33-5.92s6.25,2.29,11.75,1.11a20.74,20.74,0,0,0,9.24-5,11.75,11.75,0,0,0,8.7,3.25c5.3-.34,9.11-5.13,10.14-8.4a21,21,0,0,0,.6-7.37s.35.27,1.23,1,1.52,1.07,2.14,4.6c.9,4.8,3.46,5.06,3.46,5.06a11.61,11.61,0,0,1,.74-4.83c.74-1.78,2.29-3.8,3.45-8.25a9.61,9.61,0,0,0-4.85-11.29s3.88-2.16,3.55-6.45c-.41-5.57-6.34-7.5-6.34-7.5s.48.61.12,3-2.68,4.85-7.29,3.55c-2.46-.7-6.89-6.12-9.76-8.15a56.4,56.4,0,0,0-8.72-4.64,5.54,5.54,0,0,0-.62-.24l.11-.17c.92-1.83.77-3.65,1-5a43.81,43.81,0,0,1,1.74-8.33c.49-1.24,2.28-2.19,4.52-3.06.64-.26.71-.28,1.42-.59-.07.54.19,2.69,1.6,3.47,2.11,1.14,4.32,1.47,5.92.72,1-.48,2.55-1.58,3.39-1.87a22.42,22.42,0,0,0,4.88-2c1.13-.78,1.6-4.17,1.6-4.17l2.36-.57a6.16,6.16,0,0,0,3.24-2.18c1.06-1.41.75-4.46.75-4.46a3.37,3.37,0,0,0,2.9-3,8.22,8.22,0,0,0-2.47-6.28,33.63,33.63,0,0,1-2.83-4.43,37.53,37.53,0,0,0,1.6-9.27c.15-1.87.24-3.72.24-5.54a77.45,77.45,0,0,0-3.18-21.18,12.89,12.89,0,0,0,5.32,3.43s.33-.3.82-.8a39.59,39.59,0,0,0,1.88,12.45c3,8.14,11.17,10.65,11.17,10.65a29.73,29.73,0,0,0,2.87-5.52,19.11,19.11,0,0,0,1.06-5.64,21.86,21.86,0,0,0,1.46,2.27c5.85,8.17,15.8,8.43,15.8,8.43a50.18,50.18,0,0,0,1.61-8.24,14.11,14.11,0,0,0-.12-2.54l.57.59c7,7.23,16.84,6.06,16.84,6.06a49.27,49.27,0,0,0,.41-8.39,13.44,13.44,0,0,0-1.06-4.62c8,5.79,17.06,3.09,17.06,3.09a49.52,49.52,0,0,0-.87-8.37,16,16,0,0,0-1.22-3.07c8.37,2.68,15.9-1.37,15.9-1.37a24.94,24.94,0,0,0-2.73-8,19.63,19.63,0,0,0-2.44-3.37c10,1.15,16.86-6,16.86-6a30,30,0,0,0-4.08-5.83,38.47,38.47,0,0,0-6-4.77c.63-.14,1.29-.26,1.35-.27,8.2-1.47,12.67-9.66,12.67-9.66a28.52,28.52,0,0,0-5.44-3.76,38.62,38.62,0,0,0-7.61-2.84,17.3,17.3,0,0,0,4.29-1.31c8.74-3.16,12.16-12.16,12.16-12.16m-11-18.26a31.23,31.23,0,0,1,6.57.57c-3.45,4.15-7.29,7.44-17.63,10.57-13.47,4-21.49,3.5-24.45,3.8,6.93-4.55,8.66-7.35,8.66-7.35s-.11-.6-2.62-1.55c2.32-.62,6.86-1.76,10.25-2.86,2.32-.78,3.77-1.29,6.31-2.39,1-.12,8.52-.79,12.91-.79m-78.81,59.59a43.53,43.53,0,0,0,3.15,7.14,12,12,0,0,1-1.32,3.78,10.33,10.33,0,0,1-2.37,2.88,10.19,10.19,0,0,1-6.35-5.09c-1.47-2.8-1.41-6.09-1.47-8,.77-.66,1.59-1.4,2.15-1.93a11,11,0,0,0,2.1-3.55,11.34,11.34,0,0,0,3.46,1.63c.11.75.34,1.83.65,3.06l0,0a.33.33,0,0,0,0,.08m2.42-2.12a13,13,0,0,0,3.8.85c.49-.43,1.39-1.59,1.68-1.91,1.11,1,1.73,2.56,7.61,6.17a19.64,19.64,0,0,1-.06,4.68,21.31,21.31,0,0,1-.73,3.74,14.51,14.51,0,0,1-7-4,21.31,21.31,0,0,1-5.27-9.57m7.52-2.93a7.43,7.43,0,0,0,.57-.92,12,12,0,0,0,1.27-5.41s6.83,4.24,12.69,5.78a25.19,25.19,0,0,1,1.1,4,17.23,17.23,0,0,1,.42,3.9,29,29,0,0,1-8.81-2.51,21.28,21.28,0,0,1-7.23-4.89m11.19-5.5c-1.14-.44-3.26-1.45-4.1-1.83a11.81,11.81,0,0,0,4.79-3.08,3.36,3.36,0,0,0-.61-1.41,25.87,25.87,0,0,0,7.73.74s1,.06,1,.06c.61.59,3.24,1.71,5,3.56a10.67,10.67,0,0,1,2.9,4.76c-3.95-.13-10.19-.28-16.68-2.8m7.67-9.67a74.44,74.44,0,0,1-9.67-.89,13.25,13.25,0,0,0-2.24-2.32,14.37,14.37,0,0,0,3.25-2.52c3.41.16,10.88.32,17-1.84.29-.11.58-.2.87-.33.85.35,2,.85,3.35,1.48a12,12,0,0,1,4.68,3.55c-2.06,1.17-10.34,3-17.29,2.87m1.92-10.11c-3.36.36-6.71.47-8,.09a14.68,14.68,0,0,0,1.17-2.53c-.36-1.11-1.66-2.35-4.08-4.29l-.55-.43a98.92,98.92,0,0,0,14.25-2.52A18.37,18.37,0,0,1,274,160.6c4.33,1.65,5.62,3.06,6.13,3.62a42.73,42.73,0,0,1-14.69,4.64m2-13.9c-8.1,2.2-12.19,2.36-14,2.36a14.4,14.4,0,0,0,2.6-4.9c2.89-1.06,9.94-3.82,15.05-7.44,1,0,2.63.07,5,.28a13.43,13.43,0,0,1,6.78,2.12c-2.59,3-8.66,5.75-15.39,7.57m44.84-36.53c3.64-.48,5.13,0,5.62.1-2,3.63-7.11,9.59-18.53,15.86-10.78,5.9-17.17,8.2-19.85,9.11a35.61,35.61,0,0,0-5.87-.6,34.16,34.16,0,0,0,5-5.95c4-1.54,16.81-6.78,26.63-16.47.13-.12.39-.31.52-.43a34.48,34.48,0,0,1,6.44-1.63m-39-8.3A152.15,152.15,0,0,0,283.6,96c4.61-7.23,10.55-19.81,14.39-27.59,1.83-3.7,5.58-2.13,5.65,3.49.07,8.21-6.22,21.58-11.47,28.24-10.44,13.2-15.37,16.17-19.42,18.91a18,18,0,0,0,.6-8.87m17.22,1.23c2.36-2.31,11.71-9.32,17.58-14.68a20.52,20.52,0,0,1,5.25-3.48c.68,4.34-1.84,10.21-4.08,13.88A51,51,0,0,1,296.6,120.5c-12.25,8.7-13.21,8.76-15.22,9.71a20.76,20.76,0,0,0-12.83.08,3.38,3.38,0,0,0,.69-1.18,143.68,143.68,0,0,0,21.33-17.76M263.2,120a69.82,69.82,0,0,0,5.39-8.72c1.51-2.86,3-2.29,2.91.66-.08,5.29-2.74,10.78-6.22,15.2a23.79,23.79,0,0,1-7.79,6.62c.37-1,1.19-4.83-.25-7.76a29.16,29.16,0,0,0,6-6m3.2,13c1-.25,2.61-.61,5.11-1a15.2,15.2,0,0,1,7.62.48,80.73,80.73,0,0,1-14,10.41,93.39,93.39,0,0,1-11.62,5.63A18.74,18.74,0,0,0,248,147s1.53-1.58,4.37-4.32a35.84,35.84,0,0,0,14.08-9.76m-52.8,49.89c10.1,2,17.16-3.29,19.61-7.47s2-8.94-2.22-14.91-6.67-7.42,4.91-20.13,16-16.18,16-16.18,4.42,1.56,3.85,7.82c-.36,4-7.21,10.9-9.27,13.08s-3.94,4.06-3.94,4.06a34.93,34.93,0,0,1,6.67.54,10.63,10.63,0,0,1,4.21,1.56s-.89,3.87-2.22,5.4-3.54,3.93-3.54,3.93a17.63,17.63,0,0,1,5.11,3.15,22.59,22.59,0,0,1,2.9,3.28,13.67,13.67,0,0,1-3.3,5.12,38.75,38.75,0,0,1-5.26,3.41,22.44,22.44,0,0,1,4.61,4.08,8.42,8.42,0,0,1,1.58,3.15,14.87,14.87,0,0,1-4.33,2.23,13.66,13.66,0,0,1-3.29.54l0,0v0a12.57,12.57,0,0,1-1.71,0,15.36,15.36,0,0,1-.81,5.64,9.79,9.79,0,0,1-3.08,3.64,23.1,23.1,0,0,1-5.81-1.25,24,24,0,0,1-4.2-2.88,28,28,0,0,1-3,4.73,11.07,11.07,0,0,1-2.92,2,36.75,36.75,0,0,1-3.93-2,22.72,22.72,0,0,1-2.85-2.27l-6.22,4.36s-2.63-.95-6.14-7.18l-.18-.39A65.66,65.66,0,0,1,200.21,178c3.45,2.26,10.23,4.2,13.4,4.82m-8.83-34.16c8.28.19,15,9.91,10.38,18.36s-13.22,7.43-15,4.82a6.17,6.17,0,0,1,1.25-8.25c2.49-1.79,6.32.09,6.32.09l-.21-.29s-3.67-5.46-9-.68a5.81,5.81,0,0,0-2.15,4.43h-9.6a14.89,14.89,0,0,1,.4-2.54c1.7-9.52,9.35-16.13,17.58-15.94m-53.37,1.85a3.44,3.44,0,1,1,4.71,3.2v13.44h-2.65V153.67a3.49,3.49,0,0,1-2.06-3.15m6-5.84a6.23,6.23,0,0,0-4.71-.24,6.39,6.39,0,0,0-4.16,4.36,8,8,0,0,0-1.54-.19,6.3,6.3,0,0,0-4.63,2,6.39,6.39,0,0,0,.54,9.39v3.93h-2.24a26.43,26.43,0,0,0-3.56-8.91A33.31,33.31,0,0,0,143.31,144a50.58,50.58,0,0,0,2.09-9.71c.58.74,1.22,1.64,1.81,2.54a37,37,0,0,1,2.35,4.31l1.17,2.57,1-2.65a41.78,41.78,0,0,0,1.67-6.45c.26-1.47.44-2.79.57-3.86a34.28,34.28,0,0,1,2.82,4,36.42,36.42,0,0,1,2.58,5.49c.21.58.47,1.48.64,2.15a6.77,6.77,0,0,0-2.6,2.2m-13.77,10.38a3.44,3.44,0,1,1,4.75,3.17v8.92h-2.64v-8.94a3.46,3.46,0,0,1-2.11-3.16m52.79,14.5.3,3.78-68.26.13.13-3.91Zm-19.89-20.81a6.14,6.14,0,0,0-4.17-4.66,6.72,6.72,0,0,0-5.41.44,4.63,4.63,0,0,0-1.91-1.87c.18-.66.47-1.69.71-2.34a33.08,33.08,0,0,1,2.57-5.49,35.77,35.77,0,0,1,2.81-4c.11,1.07.31,2.39.56,3.86a41.54,41.54,0,0,0,1.67,6.45l1,2.65,1.18-2.57a34.38,34.38,0,0,1,2.36-4.31c.59-.9,1.22-1.79,1.79-2.54a52,52,0,0,0,2.09,9.71,33.37,33.37,0,0,0,6,10.74,26.42,26.42,0,0,0-3.72,9.12h-2.24V160a6.37,6.37,0,0,0,2.39-5c0-3.55-2.52-6.68-7.72-6.28m-2,6.31a3.43,3.43,0,1,1,4.78,3.16v8.94h-2.63v-8.92a3.44,3.44,0,0,1-2.15-3.18M167,150.2a3.43,3.43,0,1,1,4.56,3.24v13.71h-2.63V153.27A3.41,3.41,0,0,1,167,150.2m57.83-29.72s-.86-2.26-4.2-4.36-4.88-1.93-4.88-1.93a4.31,4.31,0,0,1,4.58-.48c2.69,1.25,3.65,2.12,4.25,3.83a5.81,5.81,0,0,1,.25,2.94m.78-8.66c2.87,1,8.45,3.19,10.56,4a12.27,12.27,0,0,0,10-.75s-1.88,4.61-8.26,3.6a34,34,0,0,1-11-4.19,18.37,18.37,0,0,0-5.82-2.34s2.61-1,4.48-.34m4.85-17.64a13.05,13.05,0,0,1,7.09,2.7c2.86,2.47,4,4.34,3.25,7.19s-2.14,3.52-2.14,3.52A12.58,12.58,0,0,0,231,105c-2.62-.11-8.69.47-11.4,3.19-.56.49-1-.13-.63-.57a30.29,30.29,0,0,0,2.9-3.32c2-2.77,2.86-4,4.69-6.07s3.95-4.08,3.95-4.08m-46.35,1.09a37.69,37.69,0,0,0,5.25-.14,68.88,68.88,0,0,1,8-.69c2.91,0,6-.95,11,1s7.9,3,7.9,3a29.6,29.6,0,0,0,3.37-3.25,10.17,10.17,0,0,0,1.81-3.43,5.29,5.29,0,0,1-2.68.18c-1.44-.28-5.47-1.85-10.54-1.08s-10.74,1.29-16.26.43-6.65-2.55-6.65-2.55,2.64.73,12.16-.88c11.59-2,23.64-7.76,27-3.15,1,1.38.38,3.52-.28,5.13a37.87,37.87,0,0,1-6,9.34,58.2,58.2,0,0,1-5.48,5.07,42.09,42.09,0,0,1-7.65,4.1,55.3,55.3,0,0,1-7.72,2.2l8-13.13-2.68.6A49.1,49.1,0,0,0,192.2,102a46.61,46.61,0,0,0-5.23,3.44c.22-1.29.46-2.67.66-3.33a11.08,11.08,0,0,1,1.67-3.4,6.8,6.8,0,0,1,.88-.71l.9-.48c-.49-.09-1.59-.29-3.15-.72a15.93,15.93,0,0,1-3.83-1.53m25.81-2.14a7.27,7.27,0,0,1,2.23.44s-.23,1.19-.23,1.19-.13,0-1.94-.7-1.64-.74-1.64-.74-.22-.38,1.59-.19m5,2.69a2,2,0,0,0,.73-.46,6,6,0,0,0,1-1.37l1.48.26-1.59,2Zm-48.23,34.67c1.11-2.85,2.29-5.48,3.49-8a37.13,37.13,0,0,1,6.92-7.44c-.13.61-.29,1.26-.41,2a31.34,31.34,0,0,0-.54,6.13c0,1.07,0,1.77,0,1.78l.23,4.07,2-3.57a41.73,41.73,0,0,1,4-5.82,25,25,0,0,1,4.23-4,30.73,30.73,0,0,0-1.22,4.41,34.64,34.64,0,0,0-.38,5.27,31,31,0,0,0,.24,4.2l.37,2.81,1.71-2.28s3.29-4.36,5.53-6.73a44.17,44.17,0,0,1,6.06-5.28c1.73-1.26,2.94-2,3-2l-1.2-2a48.62,48.62,0,0,0-9.56,7.68c-1.2,1.29-2.67,3.08-3.79,4.49,0-.27,0-.57,0-.88a30.17,30.17,0,0,1,.37-4.9A29.15,29.15,0,0,1,189,115.9c.53-1.52,1-2.71,1-2.71l1.17-2.92-2.79,1.44a28,28,0,0,0-7.81,6.41c-.72.85-1.41,1.77-2,2.63a27.66,27.66,0,0,1,.41-3.27c.57-2.75,1.15-4.88,1.15-4.9l.74-2.75-2.46,1.45a25.89,25.89,0,0,0-3.64,2.71c.29-.48.57-1,.87-1.41a42.06,42.06,0,0,1,4.38-5.74,28.66,28.66,0,0,0-4.38-1.15,10.08,10.08,0,0,1-2.32-.4s3.06-.85,6-1.82a38.78,38.78,0,0,0,6.46-3.08c-.13.31-.24.66-.37,1a66.23,66.23,0,0,0-1.18,6.52l-.38,2.87,2.28-1.78a67.34,67.34,0,0,1,7.16-5,45.21,45.21,0,0,1,6.86-2.8l.34-.11-7.77,12.69,2.52-.41A52.4,52.4,0,0,0,206,110.84l1.17-.52a26.43,26.43,0,0,0,7.31-4.32,31.62,31.62,0,0,0,6.72-6.76c3-4.49,5.7-8.26,5.7-8.26a2.46,2.46,0,0,1,1.1.07c.38.2,1,.57,1,.57s-1.82,1.74-3,3.16-4.33,5.82-6.44,8.86c-2.28,3.3-6,7.64-8,9-2.27,1.53-3.86,2.72-3.86,2.72l-2.32.25s-6.1,1.66-12.41,11.4-5.38,17.74-3.57,21.36c.33.66,1.08,2,1.68,2.9-.57.51-1.11,1.07-1.66,1.65-.43-.53-1-1.2-1.54-2.09a28.58,28.58,0,0,1-3.76-7.47,49.49,49.49,0,0,1-2.25-12.08l-.21-2.83-1.85,2.14a52.22,52.22,0,0,0-3.76,5c-.45.67-.86,1.36-1.21,2-.25-.93-.5-2.06-.74-3.34a53.74,53.74,0,0,1-.77-6.32l-.15-2.61-1.86,1.85a37.38,37.38,0,0,0-4.91,6.47c-.46.79-.94,1.57-1.38,2.32a55.22,55.22,0,0,1,1.76-5.48m-4.1,14.73a3.43,3.43,0,0,1,1.27,6.63v15.32h-2.65V151.76a3.4,3.4,0,0,1-2-3.12,3.44,3.44,0,0,1,3.42-3.44m-62-60.43c3.39-4.61,15.44,1.13,27,3.15,9.52,1.62,12.17.88,12.17.88s-1.09,1.69-6.64,2.55-11.21.3-16.29-.43-9.09.8-10.52,1.08a5.25,5.25,0,0,1-2.68-.18,10.09,10.09,0,0,0,1.82,3.43,28.35,28.35,0,0,0,3.33,3.25s2.84-1,7.92-3,8.11-1,11-1a69,69,0,0,1,8,.69,37.65,37.65,0,0,0,5.25.14,15.77,15.77,0,0,1-3.82,1.53c-1.58.43-2.67.63-3.14.72l.87.48c.34.24.73.54.92.71a10.78,10.78,0,0,1,1.65,3.4,33.62,33.62,0,0,1,.66,3.33,45.87,45.87,0,0,0-5.2-3.44,49.82,49.82,0,0,0-10.55-3.89l-2.7-.6,8,13.13a55,55,0,0,1-7.74-2.2,43.11,43.11,0,0,1-7.63-4.1,57,57,0,0,1-5.49-5.07,37.54,37.54,0,0,1-6-9.34c-.67-1.61-1.29-3.74-.29-5.13m16.19,8.52s.2.08-1.62.74-1.93.7-1.93.7-.22-1.15-.25-1.19a7.79,7.79,0,0,1,2.24-.44c1.81-.19,1.57.19,1.57.19m-6.57,2.5-1.63.44-1.61-2,1.48-.26a6.39,6.39,0,0,0,1,1.37,1.87,1.87,0,0,0,.74.46m-16,9.21a12.74,12.74,0,0,0-7.73,2.57s-1.38-.66-2.13-3.52.39-4.72,3.26-7.19a13,13,0,0,1,7.08-2.7s2.12,2,4,4.08,2.67,3.3,4.69,6.07a29.26,29.26,0,0,0,2.88,3.32c.41.44-.06,1.06-.64.57-2.71-2.72-8.78-3.29-11.38-3.19m4,9.48a34.14,34.14,0,0,1-11,4.19c-6.42,1-8.26-3.6-8.26-3.6a12.2,12.2,0,0,0,10,.75c2.14-.84,7.72-3,10.6-4,1.83-.66,4.46.34,4.46.34a18.28,18.28,0,0,0-5.82,2.34m6.32,1.62c-3.34,2.1-4.18,4.36-4.18,4.36a5.67,5.67,0,0,1,.24-2.94c.59-1.71,1.55-2.58,4.24-3.83a4.32,4.32,0,0,1,4.59.48s-1.53-.18-4.88,1.93m31.33,32.24c1.8-3.62,2.72-11.62-3.59-21.36s-12.41-11.4-12.41-11.4l-2.32-.25s-1.57-1.19-3.87-2.72c-2-1.34-5.7-5.68-8-9-2.1-3-5.19-7.42-6.41-8.86s-3.07-3.16-3.07-3.16.57-.38,1-.57A2.41,2.41,0,0,1,98.21,91s2.75,3.78,5.7,8.26a32.16,32.16,0,0,0,6.76,6.76h0a25.64,25.64,0,0,0,7.29,4.32l1.2.52a52,52,0,0,0,10.77,2.59l2.5.41-7.76-12.69.33.11a46.27,46.27,0,0,1,6.85,2.8,67.61,67.61,0,0,1,7.17,5l2.26,1.78-.39-2.87a60,60,0,0,0-1.18-6.52c-.11-.36-.23-.7-.35-1a38.65,38.65,0,0,0,6.44,3.08c3,1,6,1.82,6,1.82a10,10,0,0,1-2.3.4,27.76,27.76,0,0,0-4.42,1.15,42.46,42.46,0,0,1,4.42,5.74c.27.46.55.94.83,1.41a27.12,27.12,0,0,0-3.62-2.71l-2.46-1.45.73,2.75s.57,2.15,1.13,4.9a22.73,22.73,0,0,1,.41,3.27,32.38,32.38,0,0,0-2-2.63,27.71,27.71,0,0,0-7.82-6.41l-2.79-1.44,1.18,2.92s.48,1.19,1,2.71a30.51,30.51,0,0,1,1.29,4.55,31.94,31.94,0,0,1,.37,4.9c0,.31,0,.62,0,.88-1.14-1.41-2.58-3.19-3.78-4.49a49.41,49.41,0,0,0-9.56-7.68l-1.19,2s1.24.74,3,2a43.67,43.67,0,0,1,6.06,5.28c2.23,2.36,5.51,6.73,5.53,6.73l1.69,2.28.4-2.81a35.25,35.25,0,0,0,.22-4.2,32.54,32.54,0,0,0-.39-5.27,29.53,29.53,0,0,0-1.21-4.41,25.36,25.36,0,0,1,4.23,4,41.9,41.9,0,0,1,4,5.82l2,3.57.22-4.07s0-.72,0-1.78a31.83,31.83,0,0,0-.51-6.13c-.15-.69-.29-1.34-.41-2a37,37,0,0,1,6.92,7.44c1.2,2.48,2.36,5.11,3.48,8,.64,1.66,1.25,3.62,1.76,5.48l-1.37-2.32a36.81,36.81,0,0,0-4.91-6.47L152,125.32l-.14,2.61a57.93,57.93,0,0,1-.79,6.32c-.22,1.28-.5,2.41-.74,3.34-.34-.63-.76-1.32-1.2-2a50.32,50.32,0,0,0-3.78-5l-1.83-2.14-.21,2.83a50.36,50.36,0,0,1-2.25,12.08,29,29,0,0,1-3.76,7.47c-.65.95-1.22,1.71-1.67,2.26-.48-.64-1-1.38-1.46-1.87.59-1,1.31-2.24,1.62-2.85M109.89,167c-4.59-8.44,2.08-18.17,10.33-18.36s15.89,6.42,17.6,15.94a16.76,16.76,0,0,1,.3,2.56l-9.67.13c-.22-2.28-.53-3.59-1.67-4.94-4.78-5.64-10-.69-10-.69s-1.21,2-.49,2.59a3,3,0,0,0,2.16.39s2.71-2,5.18-.26a5.19,5.19,0,0,1,1.25,7.44c-1.78,2.61-10.42,3.63-15-4.82m-37-42.89s4.41,3.47,16,16.18,9.25,14.07,4.91,20.13-4.72,10.63-2.21,14.91,9.51,9.45,19.61,7.47c3.16-.62,10-2.56,13.4-4.82A65.37,65.37,0,0,1,120,189.86c-.05.13-.1.26-.17.39-3.5,6.23-6.16,7.18-6.16,7.18l-6.19-4.36a23.79,23.79,0,0,1-2.85,2.27,36.15,36.15,0,0,1-3.93,2,11.31,11.31,0,0,1-2.91-2,27.17,27.17,0,0,1-3-4.73,23.93,23.93,0,0,1-4.17,2.88,23.44,23.44,0,0,1-5.83,1.25,9.84,9.84,0,0,1-3.07-3.64,15.6,15.6,0,0,1-.81-5.64,12.39,12.39,0,0,1-1.71,0l0,0,0,0a13.63,13.63,0,0,1-3.29-.54,14.9,14.9,0,0,1-4.32-2.23,8.19,8.19,0,0,1,1.58-3.15,22.2,22.2,0,0,1,4.59-4.08,40.49,40.49,0,0,1-5.25-3.41A13.53,13.53,0,0,1,69.14,167,21.68,21.68,0,0,1,72,163.68a17.39,17.39,0,0,1,5.12-3.15s-2.23-2.42-3.55-3.93-2.22-5.4-2.22-5.4a10.49,10.49,0,0,1,4.19-1.56,35.28,35.28,0,0,1,6.7-.54s-1.83-1.83-3.95-4.06-8.9-9-9.26-13.08c-.57-6.26,3.85-7.82,3.85-7.82m-16.35,35a98.63,98.63,0,0,0,14.24,2.52l-.56.43c-2.43,1.94-3.72,3.18-4.1,4.29a13.85,13.85,0,0,0,1.2,2.53c-1.28.38-4.65.27-8-.09a42.54,42.54,0,0,1-14.7-4.64c.52-.56,1.8-2,6.15-3.62a18.15,18.15,0,0,1,5.76-1.43M41.93,147.38a13.3,13.3,0,0,1,6.76-2.12c2.4-.21,4-.28,5-.28,5.08,3.62,12.15,6.37,15,7.44a14.12,14.12,0,0,0,2.61,4.9c-1.86,0-5.95-.16-14.06-2.36-6.72-1.83-12.79-4.61-15.38-7.57m10.95,24c6.16,2.16,13.64,2,17.05,1.84a14.3,14.3,0,0,0,3.24,2.52,12.52,12.52,0,0,0-2.24,2.32,74.23,74.23,0,0,1-9.67.89c-6.94.15-15.21-1.7-17.28-2.87a12,12,0,0,1,4.67-3.55c1.38-.64,2.51-1.13,3.37-1.48.29.13.57.22.86.33M61.13,183a25.87,25.87,0,0,0,7.72-.74,3.5,3.5,0,0,0-.62,1.41A11.85,11.85,0,0,0,73,186.8c-.83.38-2.94,1.39-4.08,1.83-6.48,2.52-12.72,2.68-16.68,2.8a10.64,10.64,0,0,1,2.91-4.76c1.72-1.85,4.33-3,4.95-3.56,0,0,1,0,1-.06m3.39,14.59a26.86,26.86,0,0,1,1.08-4c5.87-1.54,12.7-5.78,12.7-5.78a12.09,12.09,0,0,0,1.27,5.41c.17.33.38.62.56.92A21.15,21.15,0,0,1,72.88,199a28.93,28.93,0,0,1-8.81,2.51,17.17,17.17,0,0,1,.44-3.9m10,4.54C80.42,198.56,81,197,82.16,196a22.13,22.13,0,0,0,1.67,1.91,13.16,13.16,0,0,0,3.8-.85,21.27,21.27,0,0,1-5.27,9.57,14.47,14.47,0,0,1-7,4,19.94,19.94,0,0,1-.74-3.74,21,21,0,0,1-.07-4.68m15.52-3,0-.08s0,0,0,0a29.67,29.67,0,0,0,.64-3.06,11.21,11.21,0,0,0,3.46-1.63A11.2,11.2,0,0,0,96.28,198c.53.54,1.34,1.28,2.14,1.93-.07,1.87,0,5.16-1.48,8A10.15,10.15,0,0,1,90.6,213a10.43,10.43,0,0,1-2.38-2.88,12,12,0,0,1-1.32-3.78,44.41,44.41,0,0,0,3.16-7.14M72.5,142.71c2.83,2.73,4.36,4.32,4.36,4.32a18.62,18.62,0,0,0-5.58,1.42,92.43,92.43,0,0,1-11.61-5.63,80.49,80.49,0,0,1-14-10.41,15.17,15.17,0,0,1,7.61-.48c2.52.41,4.13.77,5.11,1a35.91,35.91,0,0,0,14.09,9.76M56.23,111.25A72,72,0,0,0,61.6,120a30.12,30.12,0,0,0,5.94,6c-1.42,2.92-.59,6.81-.22,7.76a23.56,23.56,0,0,1-7.79-6.62c-3.49-4.42-6.13-9.91-6.22-15.2-.07-3,1.4-3.52,2.91-.66m-35-39.4c.07-5.62,3.83-7.19,5.65-3.49,3.84,7.79,9.8,20.37,14.39,27.59a154.78,154.78,0,0,0,10.25,14.17,18,18,0,0,0,.59,8.87c-4-2.73-9-5.71-19.41-18.91-5.26-6.66-11.55-20-11.46-28.24m-5.69,35.22c-2.23-3.68-4.75-9.54-4.05-13.88a20.83,20.83,0,0,1,5.24,3.48C22.57,102,31.9,109,34.27,111.35a142.81,142.81,0,0,0,21.31,17.76,3.35,3.35,0,0,0,.72,1.18,20.85,20.85,0,0,0-12.86-.08c-2-1-3-1-15.19-9.71a51.05,51.05,0,0,1-12.74-13.43M6.85,118.53c.48-.15,2-.58,5.63-.1a34.31,34.31,0,0,1,6.42,1.63c.13.12.4.3.53.43,9.82,9.69,22.63,14.93,26.62,16.47a34.56,34.56,0,0,0,5,5.95,35.57,35.57,0,0,0-5.86.6c-2.68-.91-9.1-3.21-19.84-9.11C14,128.12,8.82,122.16,6.85,118.53M4.68,140.17a31.35,31.35,0,0,1,6.57-.57c4.41,0,11.92.66,12.91.79a66.63,66.63,0,0,0,6.33,2.39c3.39,1.11,7.93,2.25,10.22,2.86-2.49,1-2.62,1.55-2.62,1.55s1.73,2.8,8.68,7.35c-3-.3-11,.23-24.44-3.8C12,147.61,8.12,144.31,4.68,140.17m.5,19a35.7,35.7,0,0,1,5.71-1.73c3.9-.76,8.21-.53,10.53-.66a43.89,43.89,0,0,0,12.84,2c6,.31,11.35,0,14.87-.15a14.08,14.08,0,0,0-5.64,2.67,10.23,10.23,0,0,0-2.73,3.11c.06.3,1.13,1.11,1.59,1.45-2.72.62-9.37,1.23-21.17-.38-9.24-1.25-14-4.73-16-6.32m2.89,19.19a36.86,36.86,0,0,1,6.36-3.83,31.3,31.3,0,0,1,9.45-2.67A62.38,62.38,0,0,0,38.54,171a62.2,62.2,0,0,0,8.85-2.08A13.31,13.31,0,0,0,49.5,170a14.26,14.26,0,0,0-6,3,11.09,11.09,0,0,0-2.82,3.76c.6,1,3.48,2.23,3.48,2.23-4.35,1.53-9.09,2.2-16.24,2.5-14,.66-17.69-1.45-19.85-3.08m4,19.48c.1-.59,1.39-2.9,4.48-5.7a26.47,26.47,0,0,1,5.84-4,63.86,63.86,0,0,0,21.29-4,30.88,30.88,0,0,0,6.47-3,35.25,35.25,0,0,0,6.78,1.58c-2.43.95-7.59,6.27-21.71,12-13,5.23-18.12,4.31-23.15,3M22.9,213.61s.47-4.21,4.94-9.71c7.29-1.59,16-6.63,20-9.43.72-.52.94-.41,1.77-1,2,.85,6.38.77,8.36.79-2.67,2.45-13.17,12-21.51,15.72-9,4-13.59,3.66-13.59,3.66m25,6.79c-6.45,4.56-11.77,5.25-11.77,5.25a18.06,18.06,0,0,1,.21-4,25.11,25.11,0,0,1,1.45-5.56c7.75-3.49,15.48-12.26,18.63-16.34.67-.87,3.25-4.05,4.42-5.63.55,0,1.11-.11,1.69-.18a25.13,25.13,0,0,0-1.17,4.7,26.08,26.08,0,0,0-.13,5.73,4.89,4.89,0,0,0,1.36.22c-1.8,2.31-7.48,10.71-14.69,15.82m14.71,7.49c-5.69,5.52-10.88,5.54-10.88,5.54a24.67,24.67,0,0,1,0-4.33c.2-1.84,1-5.43,1.1-5.92,6.29-5.62,10.48-13.65,12.81-18.49A19.17,19.17,0,0,0,72,203.37a23.34,23.34,0,0,0,0,4.69,32.19,32.19,0,0,0,1,4.53,45.42,45.42,0,0,1-10.44,15.29M80.52,230c-4.82,6.27-10.12,8-10.12,8s-1.5-1.27-1.43-8.92C73,224,75.3,218,77,213a18.37,18.37,0,0,0,8.21-4.51,26,26,0,0,0,1.45,3.93c.2.41,1.28,2.08,1.47,2.44-2.29,6.77-4.51,11-7.65,15.12m15.89,1c-2.56,6.34-6.38,7-6.38,7a29,29,0,0,1-2.22-10.4,57.8,57.8,0,0,0,3.44-11,18,18,0,0,0,6.11-4.62c.11.31,1.26,3,2,4.34-.43,6.68-1.28,10.56-2.95,14.66m7-14.93a10.81,10.81,0,0,1-2.25-2.73,20.25,20.25,0,0,1-2-4,22,22,0,0,0,1.74-9.33,21,21,0,0,0,3.18-1.81c2.1-1.33,3.4-2.32,3.4-2.32l3.9,3a22.85,22.85,0,0,1-2.08,9.58,20.56,20.56,0,0,1-5.9,7.55M105,264.38a3.54,3.54,0,0,1,.62-4c1-1.15,1.94-3.62,2.56-3.36s.16,1.41-.26,2.29S106,261.4,106.27,262s1.76-.35,1.76-.35-.52,1.77.44,2.12,1.23-.88,1.85-.88,1.48,2.11,2.83,2.29,2.81-1.58,2.81-1.58l2.56.62s1.41,2.82-.89,3.88S114,268,112,266.49s-6.36-.34-7-2.11M117.48,262c-.19-.6.53-1.24.53-1.24s.25-1,.7.1.52,2,.1,2a1.27,1.27,0,0,1-1.32-.89m-.88,15.52c-.44-.61-1.85.47-2.13-1.13s.62-1.49,2.21-.71,2.2,1.32,1.75,2-1.4.43-1.83-.21m3-3.52c-2.2.27-4-1.41-5.9-1.93s-3.71.35-5.12-1.59-.2-2.73.35-2.66.08.9.69,1.16,1.06-.64,1.34-.27-.18,1.31.34,1.5.46-.77,1.16-.52,2.64,1.14,3.63,1,2.73-2,4.13-.27,1.59,3.35-.61,3.61m2.45-6.08s2-1.43,1.6.36-.69,2.92-1.94,1.31.34-1.66.34-1.66m1.6,11.91c-1.74,0-2.83-.25-2.46-2.4s.43-1,2-1.31,3.17-.44,3.17,1.31-1,2.4-2.74,2.4m2.83-4.77a1.13,1.13,0,0,1-.18-1.95c.53-.52,1.15-.52,1.32,1.07s-.17,1.58-1.15.88m6.87,64.21a12.33,12.33,0,0,1-9.73,2,7.9,7.9,0,0,1-6.4-5.36c-1.18-3-.62-8.17-.55-10.29,0-.57,1.7-6.66,2-7.94.18-1,.49-1.88-.38-1.69-1.55.33.17,1.56-4.4,4.11a9.84,9.84,0,0,0-4.83,10c.48,4.31.21,5.17.21,5.17a18.75,18.75,0,0,0-.94-3,31.54,31.54,0,0,1-1.75-5.27c-.84-3.41,1-5.6,2.75-8.16a25.45,25.45,0,0,1,4.41-4.62,14.24,14.24,0,0,1-3.45-1.23,4.77,4.77,0,0,1-2.68-4.33,5.29,5.29,0,0,1,1.7-3.36,6.06,6.06,0,0,0,.9,3.86c.84,1.22,3.7,2.48,6.42,2.39s7.68-3.16,9.66-5.64a27.6,27.6,0,0,1,6.73-5.7,14.68,14.68,0,0,1,6.2-2.3c1.15.07,1.6,0,2.53.14-4.77,2.37-12.63,9-17.54,17.91-3.43,6.13-3.59,11.41-2.32,14.45,1.32,3.24,3.65,4.77,6,5a17.79,17.79,0,0,0,6.37-.59,5.35,5.35,0,0,1,4.62,1.12c1.41,1.22,1.36,2,1.36,2a9.12,9.12,0,0,0-6.83,1.31m-4.09-84.69,2.81-2.92,5,6.93-1.2,1.33Zm4.76,7.14-1,1.08-6.83-4.65.89-1,.38-.63Zm4.87-2.51,1.13.34-5,5.78-.44-.8Zm2.11,3.17,7,7.37-2.4,2.66L137.83,266Zm8.75,8.81.57.5-2.57,3.26-.84-.52Zm2.09,1.8,44.31,45.36-.92.93-45.7-43.77ZM195,260.23c2.16,0,2.47.56.6,2.07s-10.48,3.89-10.48,3.89,3.54.35,5.56.52,2.69.64,1.44,2.08c-1.44,1.66-11.25,3-11.25,3a36.59,36.59,0,0,1,5.21,1.18c.9.35,1.93,1-.25,2.51s-9.23,3.16-9.23,3.16,4.42,1.6,1.74,3.18-9,2.83-9,2.83,3.82,1.29,3,2.55c-.28.43-1.5.73-2.89,1.15l-6.8-7c12.65-12.12,23.08-21.36,31-25.41s8.74-3.28,5.51-.19-9.08,4.48-9.08,4.48,3,0,5,0m-3.52,59.66,2.24,2.17c-.12.06-.15.07-.14.09h0c-4.9.79-4.9-.82-4.9-.82a6.89,6.89,0,0,0,2.82-1.44m-4.2-.38a56.59,56.59,0,0,1-5.43-6.69c-1.88-2.61-3.43-4.62-5.39-7.73L190,318.39a4.34,4.34,0,0,1-2.69,1.13m4.27,9.24c1.87-2.36,1.15-3.9,1.15-3.9a7.89,7.89,0,0,0,3,.11,7.3,7.3,0,0,0,1.86-.6,4.56,4.56,0,0,1-.52,4c-1.35,2-2.78,1.73-5.24,2.24-1.85.39-2.41-.14-2.41-.14a5.75,5.75,0,0,0,2.17-1.68m-28.46-36.63a1.66,1.66,0,0,1-.24.46c-1.21,1.45-12.55,3.68-12.55,3.68L128,317.55s.28-2.51,3.79-6.32c6-6.43,17.43-16.57,25.4-24.56Zm-32,38.24a4.54,4.54,0,0,1-3.24-1.1c-2-2-1.29-5.24-1.29-5.24a6.15,6.15,0,0,0,2.85,1c.78.09,2.26.09,2.26.09a6.49,6.49,0,0,0-.72,2.38,15,15,0,0,0,.14,2.82m-.57-7.22a7.45,7.45,0,0,1-2.89-1.3l2.89-3a8.27,8.27,0,0,0,2.2,1.25,10.73,10.73,0,0,0,4.65.57s-1.52,3.22-6.86,2.44m6.12-4.39a3.38,3.38,0,0,1-2.82-3l18.29-17.42s.2,0,.52-.06a14.65,14.65,0,0,1-1.27,2.67c-2.89,4.95-5.85,7.54-8.14,10s-6.58,7.81-6.58,7.81m5.53,25.65a12.56,12.56,0,0,1-5.81-4.09,9.73,9.73,0,0,1,3-.37,9.3,9.3,0,0,1,3.37,1.06,11.21,11.21,0,0,0-.19-2.27,8.14,8.14,0,0,0-2.12-4.73c-2.36-2.92-5.31-2.51-6.05-3.15a4.74,4.74,0,0,1-.64-2.14,3.52,3.52,0,0,1,.86-2.9c.59-.66,2.81-1.33,4.27-3a27.75,27.75,0,0,0,2.53-3.38h-1.6s3.69-4.66,8.29-9.67a36.37,36.37,0,0,0,7-11.62c.64,0,.25,0,.88,0a48.71,48.71,0,0,1-2.31,6.73c-1.36,3-3.84,6.75-6.18,11.35-2.88,5.64-5.12,10.37-4.9,14.63.56,9.67,11.8,13.45,11.8,13.45a23,23,0,0,1-12.25.08M154.13,319a68.46,68.46,0,0,0-1.78,12.27,37.4,37.4,0,0,0,.64,9.5,11,11,0,0,1-5.54-9.14c-.08-3.8,1.48-8.15,2.94-11.81s7.87-21.33,7.87-21.33l.79-.15c-.92,4.81-4.36,18.45-4.91,20.66m1.8,23.77c-.85-.42-1.12-9.53-.78-13.47.5-6.13,2.1-13.05,3.89-21.51.66-3.25,1.22-6.68,1.74-9.45.57,0,.48-.17,1-.17.12,5.71.25,14.12.15,21a44.79,44.79,0,0,0-2.54,5.34,36,36,0,0,0-1.94,10.15,25.73,25.73,0,0,0,.72,7.64s-1.38.93-2.25.51m6.56,10-1-1s-1.58-1.91-2.38-3a10.17,10.17,0,0,1-1.81-3.25l1.67-.65a26.56,26.56,0,0,0,2,3.71,11,11,0,0,0,1.57,1.94Zm.24-5.55-.17-9.24c-.07-3.77-.29-13.29-.28-15.74,0,0,4.57,3.41,4.27,13.06a19.91,19.91,0,0,1-3.82,11.93m2.06-49c.7,0,.87.17,1.32.17,0,0,0-.15,0-.15s7.25,18.51,8.7,22.17,3,8.09,2.94,10.82c-.1,8.14-7.28,11.7-7.28,11.7a27.68,27.68,0,0,0,2.39-11.47c0-7-6.92-28.95-8.06-33.25m19.88,38.78c-2.48,7.36-10.17,7.55-12.24,7.49-.1,0,5.51-2.15,7.17-7.92,1.42-5,1.52-9.35-2.32-17.69-3.25-7.09-7.53-17.46-8.65-20.64.51,0,.47,0,1,0l.44.4c.85,1.52,3.31,5.86,6.26,11.71,3.64,7.32,5.42,10.11,6.94,13.51,2.48,5.58,2.5,9.82,1.37,13.16m4.79-35.68a43.06,43.06,0,0,1,3.43,3c2.21,1.84,7.81,6.16,11.61,7,4.95,1,8.88-.37,10.11-2.39a5,5,0,0,0,.72-3,3.78,3.78,0,0,1,1.29,1.74c.73,2.15-.92,4.41-2.87,5.42a13.67,13.67,0,0,1-8.38,1c-2.88,0-.54,1.14,1.13,2.26,4.37,3,9.89,3.87,10.21,8.08.21,3-.08,3.11-.69,6.41-.47,2.59-1.13,1.15-1.13,1.15a6.41,6.41,0,0,0-.86-2.53c-1.7-2.58-4.13-3-5.71-5.71-1.43-2.43-3.95-6.7-5.1-5.41-.89.29,6.35,10.68,1.15,17.58-5.79,7.7-10.51,2-13.6,2.11-1.62.07-4.37,1.74-4.37,1.74s.76-4.11,1.81-5.1,2.44-1.18,4.91-1.54,7-.83,7.34-7.11c.14-2.34-1.8-5.47-2.49-6.49l1.28-1.56L179.61,298c.51,0,.5.13.95.13,1.46.15,5.81.76,8.91,3.1m6-27.13c-1.39.76-2.38,1.25-3.26,1.64l-1.84.74c-4.49,1.75-5,6.79-5.85,13.07s-2.22,5.27-4.39,5.27c-.46,0-1.7-.06-3.86-.06L171.38,290a6,6,0,0,0,2.23-1,2.13,2.13,0,0,0,.48-3.16,20.13,20.13,0,0,0,6.64-2.33c3-1.8,1.23-3.77,1.23-3.77a32.71,32.71,0,0,0,6.58-3c3.18-2.13.87-4.43.87-4.43a9.74,9.74,0,0,0,5.14-2.41c3.56-3.75-.64-4.4-.64-4.4a15.56,15.56,0,0,0,4.77-2.66c2.91-2.71-.21-3.77-.21-3.77s5.21-3.55,5.21-6.72c0-2.41-3.19-2.13-5.36-1.38-2.65.92-7,3.06-13.07,7.31-5.16,3.62-15.79,12.76-24.34,21.21l-8.67-8.84-11.95-12.75-1.2-.45-7.57-9.14-8.75,9.83,9.58,6.95.27.87,13.72,10.66,9.15,8.47c-3.32,3.53-6.12,6.41-9.8,9.81h-1c-2.16,0-3.49,1-4.37-5.27S139,278.2,134.46,276.5a39.85,39.85,0,0,1-5.09-2.38c.5-2.37-1-4-1.86-3.75a3.2,3.2,0,0,0-2.24,1.44,6.14,6.14,0,0,1-.56-.33c0-.06.52-1.12.56-1.18.82-1.5.84-4.44-1.16-4.91a2.11,2.11,0,0,0-2.16.43s-.28.47-.58-.36a3.39,3.39,0,0,1-.21-2,11.11,11.11,0,0,0-.73-4.09c-.69-2-2.53-2.24-3.61-1.3s-.24,2-1.29,3c0,0-.31,0-.35.07a23.63,23.63,0,0,1-2.5-4.36c-6.1-13.66-2.14-31.51-.25-38.93s7.93-20.59,10.91-27.14a49.31,49.31,0,0,0,4-11.7l10.39-2.75A115.34,115.34,0,0,1,134,192.93c-2.17,7.32-6.16,18.69-7.56,24.54s-2.68,19,2.86,27a35,35,0,0,0,16.3,12.63V178.26l2.64-2.08V258c1.83.51,3.48.94,5.09,1.28v-81l2.65-2.08v83.52a49.41,49.41,0,0,0,5.08.43V178.26l2.64-2.08v83.94a49.5,49.5,0,0,0,5.09-.43V178.26l2.64-2.08v83.07c1.63-.34,3.27-.77,5.07-1.28V178.26l2.66-2.08v80.92a34.84,34.84,0,0,0,16.29-12.62c5.54-7.95,4.25-21.17,2.86-27s-5.39-17.22-7.56-24.54a86.46,86.46,0,0,1-3.38-14l9.68-2.39c.12.78.26,1.53.41,2.26l0,.23a45.23,45.23,0,0,0,3.29,10.06c.23.57.48,1.13.71,1.64,3,6.55,9,19.71,10.94,27.14s5.83,25.27-.28,38.93c-.27.63-.54,1.19-.81,1.74-.49.9-1,1.59-1.65,2.62,0,0-.32,0-.35-.07-1.06-1-.29-2.09-1.31-3s-2.91-.74-3.6,1.3a10.47,10.47,0,0,0-.72,4.09,3.66,3.66,0,0,1-.23,2c-.29.83-.56.36-.56.36a2.11,2.11,0,0,0-2.15-.43c-2,.47-2,3.41-1.17,4.91,0,.07.53,1.12.56,1.18-.34.24-.23.11-.56.33a3.17,3.17,0,0,0-2.24-1.44c-.87-.21-2.34,1.38-1.88,3.75M207.34,262a1.28,1.28,0,0,1-1.33.89c-.43-.08-.34-1,.1-2s.7-.1.7-.1.72.64.52,1.24m-4.23,7.58c-1.24,1.62-1.5.44-1.94-1.31s1.59-.36,1.59-.36,1.59.08.34,1.66m-5.92,4.6c.2-1.59.81-1.59,1.33-1.07a1.12,1.12,0,0,1-.17,1.95c-1,.7-1.32.7-1.16-.88m4,5.64c-1.77,0-2.73-.61-2.73-2.4s1.58-1.59,3.17-1.31,1.68-.78,2,1.31-.73,2.4-2.48,2.4m7.05-2.32c-.42.64-1.41.9-1.83.21s.16-1.23,1.74-2,2.48-.87,2.2.71-1.66.52-2.11,1.13m8-7c-1.39,1.94-3.16,1-5.12,1.59s-3.7,2.2-5.9,1.93-2-1.85-.61-3.61,3.19.09,4.15.27,2.92-.71,3.61-1,.61.71,1.15.52.07-1.13.34-1.5.7.53,1.34.27.17-1.06.7-1.16,1.76.72.34,2.66m.09-6.71c1-.35.46-2.12.46-2.12s1.5,1,1.76.35-1.23-1.76-1.68-2.65-.9-2-.26-2.29,1.6,2.21,2.54,3.36a3.46,3.46,0,0,1,.62,4c-.62,1.77-4.92.62-7,2.11s-3.36,2.66-5.64,1.61-.88-3.88-.88-3.88l2.57-.62s1.48,1.77,2.82,1.58,2.19-2.29,2.83-2.29.86,1.22,1.82.88m7.37-50.36a11,11,0,0,1-2.25,2.73,20.51,20.51,0,0,1-5.9-7.55,22.5,22.5,0,0,1-2.08-9.58l3.89-3s1.31,1,3.41,2.32a22.41,22.41,0,0,0,3.17,1.81,21.88,21.88,0,0,0,.74,6.44,20.09,20.09,0,0,0,1,2.89,21.35,21.35,0,0,1-2,4m11.1,24.65s-3.83-.66-6.37-7c-1.68-4.11-2.53-8-3-14.66.73-1.31,1.88-4,2-4.34a18.07,18.07,0,0,0,6.11,4.62,58.21,58.21,0,0,0,3.43,11,29,29,0,0,1-2.2,10.4m19.64,0s-5.31-1.74-10.15-8c-3.13-4.08-5.35-8.35-7.64-15.12.21-.36,1.29-2,1.49-2.44a27.32,27.32,0,0,0,1.45-3.93,18.35,18.35,0,0,0,8.21,4.51c1.73,5,4.08,11,8.06,16.07.07,7.65-1.41,8.92-1.41,8.92m18.65-4.59s-5.19,0-10.89-5.54a44.94,44.94,0,0,1-10.43-15.29,34,34,0,0,0,1-4.53,23.77,23.77,0,0,0,0-4.69,19.08,19.08,0,0,0,6.36,1.31c2.33,4.84,6.55,12.87,12.82,18.49.12.49.9,4.08,1.09,5.92a24.8,24.8,0,0,1,0,4.33m15.58-7.78s-5.28-.69-11.74-5.25c-7.21-5.11-12.91-13.51-14.7-15.82a4.76,4.76,0,0,0,1.35-.22,27.15,27.15,0,0,0-.11-5.73,27.47,27.47,0,0,0-1.17-4.7c.57.07,1.15.14,1.68.18,1.19,1.57,3.75,4.75,4.42,5.63,3.15,4.08,10.88,12.85,18.63,16.34a25,25,0,0,1,1.46,5.56,17.72,17.72,0,0,1,.19,4m13.25-12s-4.55.33-13.59-3.66c-8.36-3.69-18.84-13.27-21.51-15.72,2,0,6.34.06,8.36-.79.84.62,1.06.51,1.77,1,4,2.8,12.74,7.84,20,9.43,4.48,5.5,4.94,9.71,4.94,9.71m6.39-21.48c3.08,2.8,4.38,5.11,4.47,5.7-5,1.27-10.11,2.19-23.15-3-14.11-5.69-19.26-11-21.68-12a34.94,34.94,0,0,0,6.75-1.58,31.85,31.85,0,0,0,6.49,3,63.83,63.83,0,0,0,21.29,4,26.74,26.74,0,0,1,5.84,4m2.09-17.61c3.59,1.89,6,3.37,6.35,3.83-2.16,1.62-5.86,3.73-19.86,3.08-7.14-.31-11.88-1-16.23-2.5,0,0,2.87-1.26,3.45-2.23a10.52,10.52,0,0,0-2.8-3.76,14.14,14.14,0,0,0-6-3,13.44,13.44,0,0,0,2.1-1.08,61.75,61.75,0,0,0,8.84,2.08,62.49,62.49,0,0,0,14.66.87,31.29,31.29,0,0,1,9.46,2.67m-6.76-9c-11.82,1.62-18.45,1-21.15.38.43-.34,1.51-1.15,1.57-1.45a10.35,10.35,0,0,0-2.75-3.11,14.12,14.12,0,0,0-5.63-2.67c3.54.13,8.89.45,14.88.15a43.9,43.9,0,0,0,12.84-2c2.34.12,6.64-.11,10.55.66a36.64,36.64,0,0,1,5.71,1.73c-2,1.59-6.79,5.07-16,6.32m-60.33,2.75,7,.55,1.5-2L250,165.18l-6.89.9ZM91.84,101.81s-.06-.54-.06-1.29.09-1.72.09-1.72a8.91,8.91,0,0,0-2.67,3.83,8.05,8.05,0,0,0-.48,2.58s.18-.77,2.31-1.34a18,18,0,0,1,4.86-.39l.58-1.16a5.61,5.61,0,0,0-2.31-.62,8.09,8.09,0,0,0-2.32.12m142.27,2.06c2.1.57,2.3,1.34,2.3,1.34a8.13,8.13,0,0,0-.48-2.58,9,9,0,0,0-2.69-3.83s.1,1,.1,1.72-.06,1.29-.06,1.29a8.14,8.14,0,0,0-2.32-.12,5.62,5.62,0,0,0-2.32.62l.57,1.16a18.24,18.24,0,0,1,4.89.39M173.48,41.49A44,44,0,0,1,176,45.66l1.63-1.48c.25-.25.85-.87,1.19-1.23a47.46,47.46,0,0,0-2.5-4.19c-1.11,1.11-2.24,2.22-2.85,2.73m3.23-6.06c1-1.11,1.69-1.81,2.48-2.77A18.89,18.89,0,0,0,178,31.15l-1.32-1.53c-.37.4-.79.84-1.27,1.37s-.87.8-1.4,1.31c.83.88,1.7,1.85,2.38,2.73.15.2.2.19.36.41m-29.15-.28c.67-.88,1.54-1.84,2.37-2.73-.53-.52-.8-.71-1.41-1.31s-.89-1-1.25-1.37c-.45.5-.89,1-1.34,1.53s-.83,1-1.24,1.51c.81,1,1.45,1.67,2.5,2.76.15-.2.19-.19.35-.39M119.68,60a12.93,12.93,0,0,0-1.58-2l-2,2.29c.59.7,1,1.35,1.58,2.13.5-.52,1.45-1.71,2-2.41m30.75-18.36c-.61-.51-1.75-1.62-2.85-2.73a39.3,39.3,0,0,0-2.5,4.19l1.19,1.23c.56.51,1.13,1,1.62,1.48a39.53,39.53,0,0,1,2.55-4.16m59.18,19.17-2-2.28a12,12,0,0,0-1.58,2c.58.71,1.52,1.89,2,2.41.58-.79,1-1.44,1.61-2.13m-159.8,17c2.31-.85,3.65-.57,6,0a12.42,12.42,0,0,0,5.29-.29,8.61,8.61,0,0,0-3.64,4.14c-.84,2.55.26,6.47,3.8,7s4.81.23,6.48.52a38.15,38.15,0,0,0,3.8.38,32.2,32.2,0,0,0-2.67-2.69c-1.13-1-3-1.87-2.38-3.65.49-1.43,3.64-3.71,6-5.87,2.67-2.41,2.33-6.18.47-8.66-2-2.76-3.53-4.9-5.6-7.66-2.25-3,.14-6.27.14-6.27s3.82-.42,7-1a15.86,15.86,0,0,0,4.82-1.57,62.5,62.5,0,0,1-.67,6.25c-.38,2.26-2.14,7.52.83,12.06,2.39,3.67,9.73,6.06,12.08,6.53a59,59,0,0,0,7.94,1l.45,0c2.46.17,5.34.29,13.13.19A159.19,159.19,0,0,0,131.69,77a67.48,67.48,0,0,0,9.52-1.89,30.25,30.25,0,0,0,14-8.9,19.2,19.2,0,0,0,6.93,1.41,23.07,23.07,0,0,0,6.55-1.37s5.8,6,10.82,7.85a58.88,58.88,0,0,0,13.73,3.23l.57.13a153.54,153.54,0,0,0,18.31,1.2c7.76.1,10.65,0,13.1-.2l.46,0a60,60,0,0,0,7.94-1c2.33-.48,9.68-2.85,12.09-6.52,3-4.54,1.2-9.8.83-12.07a58.26,58.26,0,0,1-.66-6.25,15.15,15.15,0,0,0,4.79,1.55c3.14.56,7,1,7,1s2.4,3.25.16,6.24c-2.09,2.77-3.56,4.92-5.62,7.67-1.86,2.48-2.2,6.25.48,8.67,2.41,2.14,5.55,4.44,6,5.85.63,1.78-1.22,2.66-2.39,3.65A31.41,31.41,0,0,0,253.62,90s2.13-.12,3.79-.38,2.88.09,6.46-.5,4.65-4.53,3.82-7.07A8.62,8.62,0,0,0,264,77.9a12.29,12.29,0,0,0,5.31.29c2.32-.56,3.63-.86,6,0s2.48,2.2,2.48,2.2a9.52,9.52,0,0,0,.82-5.32c-.49-2.7-3.92-4.2-7.56-4.47s-1.64-2.69-.14-4.11,5.36-4.31,4.41-9-5.21-6-10.67-7.43-6.05-6.13-8.86-8.37c-5-3.92-9.28-.93-10.94.33s-4.3,1.17-6.12,1.74-3.49,1.73-5.45,5.21c-2.89,5.1,1.16,10.52,3.16,15.92s-.55,9.56-7,10.92a21.58,21.58,0,0,1-4.95.51c.1-.51.2-1.1.31-1.67A25,25,0,0,1,226.9,69a47.76,47.76,0,0,0,2.65-7,6.61,6.61,0,0,0-3.11-6.11,39.82,39.82,0,0,0-5.34-1.8,8.18,8.18,0,0,1-3.25-1.66,3.74,3.74,0,0,0,.45-1.75,3.55,3.55,0,0,0-.63-2h.61l0-.33L216,44.77l3.69.8-.07-4.09-3.85.86.91-4-4.25-.11,1,4.39-3.76-1.13-.06,4,3.46-1-2,3.94v.31h.69l-.14.24a3.62,3.62,0,0,0-.5,1.8,3.39,3.39,0,0,0,.45,1.7,8.52,8.52,0,0,1-3.3,1.67A37.3,37.3,0,0,0,203,55.91,6.59,6.59,0,0,0,199.89,62c.3,3.25,1.34,4.62,2.65,7a22.35,22.35,0,0,1,2.15,5.57c.08.42.11.69.23,1.31-.26,0-1.78-.1-2-.13A33.2,33.2,0,0,1,194,73.68l-.11-.08c-6.72-3-12.3-8.18-14.35-11.39-2.23-3.56-2-5.4-1.78-6.88a21.07,21.07,0,0,1,.93-3.6,39.41,39.41,0,0,1,2.9-6.34c2.12-3.86,3.64-6.39,3.64-10.41,0-5.26-1.93-7.84-4.58-9.61-1.73-1.17-4.18-1.53-8.13-2.73a17.93,17.93,0,0,1-5.9-3,4.93,4.93,0,0,0,.87-2.49,5.58,5.58,0,0,0-.8-2.88,2.77,2.77,0,0,0-.24-.41h.64l0-.5L163.6,8.53l5.18.69-.2-5.29L163.83,5l1.56-5h-6.54l1.27,4.91-5.18-1V9.58l5.42-1-3.91,4.89,0,.53H157a5.69,5.69,0,0,0-1,3.23,5.48,5.48,0,0,0,.86,3.19,15.08,15.08,0,0,1-5.66,2.46c-4,1.06-6.32,1.29-8.61,2.64-2.5,1.51-4.36,4.75-4.13,10,.21,4.49,3.18,8.64,5.14,12.62A20.13,20.13,0,0,1,146,55.18a13.16,13.16,0,0,1,0,3.35,7.49,7.49,0,0,1-1.74,4.18c-2.71,3.79-6.56,6.69-13.15,10a24,24,0,0,1-8.86,2.67c-.24,0-1.76.14-2,.12.13-.62.16-.89.25-1.31a23.15,23.15,0,0,1,2.15-5.56c1.29-2.41,2.34-3.77,2.63-7a6.59,6.59,0,0,0-3.11-6.1,35.46,35.46,0,0,0-5.34-1.8A8.51,8.51,0,0,1,113.49,52a3.45,3.45,0,0,0,.43-1.7,3.66,3.66,0,0,0-.48-1.79l-.14-.24H114l0-.31L112,44l3.46,1-.08-4-3.74,1.11,1-4.38-4.26.12.92,4-3.84-.84-.08,4.08,3.69-.82L106.79,48l0,.32h.62a3.41,3.41,0,0,0-.64,2,3.51,3.51,0,0,0,.48,1.77A9.07,9.07,0,0,1,104,53.74a37,37,0,0,0-5.34,1.79,6.56,6.56,0,0,0-3.11,6.11c.28,3.25,1.33,4.61,2.63,7a24.12,24.12,0,0,1,2.15,5.57c.1.58.23,1.16.3,1.66a22.54,22.54,0,0,1-4.94-.5c-6.45-1.37-9-5.53-7-10.92s6-10.82,3.15-15.91c-2-3.49-3.63-4.65-5.46-5.21s-4.44-.46-6.09-1.74-6-4.26-10.94-.32c-2.82,2.22-3.41,7-8.88,8.37s-9.73,2.83-10.67,7.42,2.94,7.58,4.41,9,3.51,3.83-.15,4.11S47,72,46.52,74.67A9.38,9.38,0,0,0,47.35,80s.16-1.34,2.47-2.2M241.65,46.1a14.47,14.47,0,0,0,5.18-1.9c2.25-1.15,3.91-2.67,6.41-1.68,2.15.85,3.44,3,5.1,5.18a14,14,0,0,0,5.11,4.38c1.55.62,5.06,1,7.18,2.15,3,1.62,3.78,4.9,1.18,8.73s-5.3,5.15-4.82,7c.53,2,2.88,2.94,4.82,3.18,5.37.69,5.46,3.78,5.46,3.78a6.21,6.21,0,0,0-6.13-1.06,14.79,14.79,0,0,1-5.93.64,8.43,8.43,0,0,1-2.9-1.43s-1.34,1.82-.53,2.88,1.78,1.65,2.8,2.92,2.8,3.58-.76,5.57a7.51,7.51,0,0,1-4.43.78,3.3,3.3,0,0,0,2.29-3.95c-.51-2.18-3.56-4.18-5.58-5.58-3.16-2.18-2.69-5-1.14-7.6s4.44-5.63,6.46-9.13c1.83-3.21.37-4.57.37-4.57s7-1.36,6.22,4.2c-.31,2.13,0,4.18,1.27,2.65s2.6-5,.32-6.85-4.5-2.15-7.83-2.67-8.76-.54-13-2.49-3.43-1.72-5.6-2.56a6.2,6.2,0,0,0-6.6.88,7.52,7.52,0,0,1,5.09-3.42M237,57.51c-1.23-3,1-5.26,3.61-5.89a3.74,3.74,0,0,1,2.87.57s0,1.56.12,2.27.56,3.77,1.26,7c1.15,5.2-.65,8.08-3.92,10.91a10.75,10.75,0,0,1-3.8,2.14A8,8,0,0,0,238.85,72c1.08-2.31,1.72-4.32.88-7.09A74.87,74.87,0,0,0,237,57.51M223.21,75.26a7.83,7.83,0,0,0-.08.89,43.61,43.61,0,0,0-7.94-.8,28.55,28.55,0,0,0-8.15.76v-.71c0-.26,0-.93,0-.93a29.84,29.84,0,0,1,8-1.38,23.32,23.32,0,0,1,8.31,1.53s0,.27-.1.65M208.78,69.2a4.92,4.92,0,0,1,2.88,0c1.18.53,2.19,2.65,2.19,2.65a6.45,6.45,0,0,1-3-.23,7.69,7.69,0,0,1-2.06-2.43m6.41,2a5.18,5.18,0,0,1,.1-6.24,5.84,5.84,0,0,1,1,3.26,8.66,8.66,0,0,1-1.09,3m3.72-1.62a3.65,3.65,0,0,1,2.61.15,4.93,4.93,0,0,1-1.7,1.93,12.2,12.2,0,0,1-3.67.57,10.73,10.73,0,0,1,2.76-2.66m.29-14.14.42.2s-.1,1.27-.35,3.06a4.11,4.11,0,0,0,.32.4l2.09-2c-.76-.78-1.21-1.27-1.21-1.27l1.48.33,1.55.24A13.39,13.39,0,0,1,225.71,59c.48-.63.84-1.09.84-1.09a3.33,3.33,0,0,1,1,1c.37.6.28.82.28.82-.19.27-.66.91-.9,1.34.94,1.86,1.17,2.27,1.18,2.29s-.17.52-.52,1.31a2.47,2.47,0,0,1-.62,1s-.69-1.68-1.38-3.11c-.55.61-1.34,1.88-1.82,2.36a12.6,12.6,0,0,1,1.53,3.67s-.14.2-.54.92A10.9,10.9,0,0,0,224,71.2a16.39,16.39,0,0,0-1.83-5c-1.21,1-2,1.55-2,1.57l-1.81-1.47A19,19,0,0,0,221,64.16c-1-1.34-1.73-2.34-2.12-2.85-.54,3-1,4.7-1,4.7l-1.88-1s.31-1.85.7-5.06c.33-2.88.34-5.65.34-5.65Zm-3.87-6.45a1.83,1.83,0,1,1,0,3.66,1.83,1.83,0,0,1,0-3.66M204.91,62.5c-.69,1.43-1.37,3.11-1.37,3.11a2.37,2.37,0,0,1-.64-1c-.34-.78-.52-1.31-.52-1.31s.24-.43,1.2-2.29c-.26-.43-.73-1.07-.92-1.34,0,0-.09-.22.29-.82a3.31,3.31,0,0,1,1-1s.37.46.85,1.09A13.72,13.72,0,0,1,207,56.38l1.53-.24,1.5-.33-1.22,1.27,2.08,2,.29-.36c-.26-1.84-.36-3.17-.36-3.17l.26-.06,2.12-.91s.13,2.75.47,5.64c.38,3.22.46,4.74.46,4.74l-1.57,1s-.43-1.71-.95-4.62c-.39.52-1.13,1.5-2.08,2.82a17.89,17.89,0,0,0,2.5,2.09l-1.82,1.48s-.71-.56-2-1.57a16.35,16.35,0,0,0-1.83,5,10.67,10.67,0,0,0-.77-1.75c-.41-.72-.54-.92-.54-.92a12.07,12.07,0,0,1,1.55-3.67c-.51-.48-1.31-1.75-1.83-2.36m-43.08,1.87a13.08,13.08,0,0,1-5.19-.94l2.1-2.7a4.77,4.77,0,0,0,3.18,1.65,4,4,0,0,0,2.87-1.79l2.06,2.73a12.8,12.8,0,0,1-5,1m.46-7.5a77.52,77.52,0,0,0-13.4,1.33s.08-.86.08-1.5a3.76,3.76,0,0,0-.17-1.1,39.52,39.52,0,0,1,13.8-2.51,48.84,48.84,0,0,1,13.34,2.28s-.08,1.1-.08,1.57v1.16a47.51,47.51,0,0,0-13.58-1.24M162,33.44a1.9,1.9,0,1,1,1.87-1.9,1.91,1.91,0,0,1-1.87,1.9m1.28,3.1a1.29,1.29,0,0,1-2.59,0,1.29,1.29,0,1,1,2.59,0m-1.18,3a9.79,9.79,0,0,1,1.81,5.09,9.75,9.75,0,0,1-1.66,5.26,14.77,14.77,0,0,1-1.82-4.94c-.29-2.51,1.66-5.41,1.66-5.41M162,28.15a2.8,2.8,0,1,1,2.78-2.8,2.79,2.79,0,0,1-2.78,2.8M150.58,46.79s3.68-.28,5.63.57,3.7,3.92,3.7,3.92-4.22.29-5.88-.57-3.46-3.92-3.46-3.92m13.49,4.6s2.06-3.27,4-4.14a17.28,17.28,0,0,1,5-1s-1.8,3.17-3.45,4-5.52,1.16-5.52,1.16M179.4,67.12a56.23,56.23,0,0,0,11.54,7.34s-8.17-1.85-14.08-5.7a26.26,26.26,0,0,1-8-8l5.33.25s1.2,2.61,5.19,6.09m-9.3-33.67a3.82,3.82,0,0,1,.81-.92,2.45,2.45,0,0,1-.56-.82l.31-3A23.8,23.8,0,0,0,172.59,31c.2-.2.12,0,.35-.27.81-.85,1.58-1.75,2.22-2.52-2.2-2.31-3.74-3.61-3.74-3.61l1.71.4,2.28.62s.34,0,1.2.88c.29-.41.41-.46.41-.46l1.84.83s.06.17-.75,1.15c.46.54,1,1.17,1.65,1.93.35.44.55.64.86,1a16.28,16.28,0,0,0,1.19-1.69l.82,2.26a12.19,12.19,0,0,1-.87,1.2c1,2.08,1.48,3.32,1.48,3.32l-.79,2.54a27.31,27.31,0,0,0-2.18-4.16c-.75.92-1.4,1.62-2.41,2.71,1.1,1.58,2,3.14,2.57,4,1-1.11,1.57-1.72,1.57-1.72l-1.47,2.75,0,.06-1.34,2.51-.94.95c-.34.35-.94.94-1.52,1.51.42.86.64,1.4.64,1.4l-1,3.22a59.14,59.14,0,0,0-3.86-7.95,41.69,41.69,0,0,0-3.76-5l.56-2.43a20.67,20.67,0,0,1,2.93,3.38c.59-.54,1.68-1.67,2.81-2.82-.08-.12-.07,0-.14-.12-1-1.29-2-2.3-2.68-3.06-1.5,1.38-2.77,2.46-2.77,2.46Zm-3.26-11L169,23.8l.48.09s-.36,4.06-1.18,8.86c-1,5.33-1.74,8.48-1.74,8.48l-1.8-.95s.41-2.82,1-8.16c.56-4.8,1-9.65,1-9.65m-5.09-8.93a3.57,3.57,0,1,1-3.59,3.57,3.56,3.56,0,0,1,3.59-3.57m-6.37,10.36,2.19-1.33s.46,4.85,1,9.65c.62,5.34,1,8.17,1,8.17l-1.8.94s-.77-3.14-1.72-8.47C155.24,28,154.92,24,154.92,24Zm-9.81,22-.93-.93-1.34-2.51,0-.08-1.45-2.75s.57.62,1.58,1.73c.5-.9,1.47-2.47,2.56-4-1-1.09-1.66-1.78-2.44-2.7a28.69,28.69,0,0,0-2.16,4.16l-.78-2.54s.47-1.25,1.48-3.32a10.75,10.75,0,0,1-.86-1.21l.83-2.25a15.16,15.16,0,0,0,1.19,1.69,13.3,13.3,0,0,1,.87-1.06c.62-.76,1.15-1.38,1.64-1.92C145,27.14,145,27,145,27l1.86-.82s.11,0,.41.45c.86-.86,1.18-.89,1.18-.89l2.29-.62,1.71-.4s-1.53,1.3-3.73,3.6c.62.76,1.41,1.66,2.22,2.51.24.25.15.08.34.28a25.41,25.41,0,0,0,2-2.27l.29,3a2.8,2.8,0,0,1-.56.81,4,4,0,0,1,.81.92l.57,2.9s-1.28-1.1-2.78-2.48c-.72.78-1.63,1.78-2.67,3.08-.09.12-.06,0-.14.12,1.13,1.14,2.22,2.26,2.8,2.81a19.9,19.9,0,0,1,2.93-3.39l.56,2.43a42.07,42.07,0,0,0-3.76,5A59,59,0,0,0,147.46,52l-1-3.21s.24-.55.65-1.39c-.58-.56-1.16-1.15-1.51-1.52m-1.19,21.25c4-3.46,5.2-6.08,5.2-6.08l5.34-.25a26.31,26.31,0,0,1-8,8c-5.91,3.86-14.07,5.71-14.07,5.71a56,56,0,0,0,11.52-7.35m-25.72,7.76v.7a28.53,28.53,0,0,0-8.16-.76,43.78,43.78,0,0,0-7.92.79,6,6,0,0,0-.11-.88c0-.38-.09-.66-.09-.66a23.35,23.35,0,0,1,8.31-1.52,29.54,29.54,0,0,1,8,1.36s0,.68,0,1m-9.11-3.21a12.34,12.34,0,0,1-3.7-.57,4.92,4.92,0,0,1-1.67-1.94,3.62,3.62,0,0,1,2.6-.14,10.54,10.54,0,0,1,2.77,2.65m-.15-4a6,6,0,0,1,1-3.26,5.22,5.22,0,0,1,.11,6.24,9,9,0,0,1-1.1-3m2.46,3.67s1-2.13,2.19-2.65a4.91,4.91,0,0,1,2.88,0,7.56,7.56,0,0,1-2.09,2.43,6.37,6.37,0,0,1-3,.23M114.56,55l.28,0s-.11,1.33-.37,3.17l.29.35,2.1-2c-.73-.79-1.22-1.26-1.22-1.26l1.5.31,1.54.23a15.41,15.41,0,0,1,2.21,2.6l.84-1.1a3.28,3.28,0,0,1,1,1c.39.6.29.82.29.82-.19.28-.65.9-.9,1.34.93,1.85,1.17,2.27,1.18,2.28a11.55,11.55,0,0,1-.52,1.32,2.52,2.52,0,0,1-.62,1S121.5,63.4,120.8,62c-.52.61-1.32,1.9-1.81,2.37A11.67,11.67,0,0,1,120.51,68l-.53.93a11.28,11.28,0,0,0-.77,1.74,16.45,16.45,0,0,0-1.84-5c-1.21,1-1.94,1.54-1.94,1.55l-1.82-1.47a18,18,0,0,0,2.53-2.08c-1-1.31-1.7-2.3-2.08-2.83-.53,2.92-1,4.62-1,4.62l-1.59-1s.08-1.51.47-4.72c.33-2.89.45-5.65.45-5.65Zm-4.2-6.53a1.83,1.83,0,1,1-1.83,1.83,1.83,1.83,0,0,1,1.83-1.83M100.36,68a11.82,11.82,0,0,1,1.54-3.67c-.49-.47-1.29-1.76-1.82-2.37-.69,1.43-1.37,3.12-1.37,3.12a2.33,2.33,0,0,1-.62-1,13.45,13.45,0,0,1-.52-1.32s.23-.42,1.19-2.28c-.27-.44-.71-1.06-.93-1.34,0,0-.08-.22.29-.82a3.31,3.31,0,0,1,1-1l.85,1.1a14.85,14.85,0,0,1,2.2-2.6l1.54-.23,1.51-.31s-.49.48-1.22,1.26l2.08,2,.32-.39c-.25-1.79-.34-3.06-.34-3.06l.39-.2,2.16-1.06a52.85,52.85,0,0,0,.35,5.65c.37,3.22.68,5.06.68,5.06l-1.84,1s-.42-1.73-1-4.69c-.38.51-1.12,1.5-2.11,2.85a17.49,17.49,0,0,0,2.52,2.08l-1.81,1.47s-.73-.56-2-1.55a16.53,16.53,0,0,0-1.84,5,10.38,10.38,0,0,0-.77-1.74l-.53-.93M88.75,57A77.58,77.58,0,0,0,86,64.34c-.8,2.78-.18,4.78.89,7.09A8.34,8.34,0,0,0,88.63,74a10.76,10.76,0,0,1-3.8-2.15C81.55,69,79.75,66.1,80.9,60.91c.69-3.21,1.17-6.26,1.27-7s.13-2.28.13-2.28a3.77,3.77,0,0,1,2.87-.56C87.81,51.72,90,54,88.75,57M53.91,72.57c1.92-.23,4.27-1.2,4.8-3.17.51-1.8-2.19-3.12-4.8-7s-1.85-7.09,1.17-8.73c2.14-1.17,5.62-1.52,7.2-2.15a13.91,13.91,0,0,0,5.09-4.37C69,45,70.32,42.84,72.46,42c2.49-1,4.18.52,6.41,1.67a14.32,14.32,0,0,0,5.21,1.9A7.53,7.53,0,0,1,89.14,49a6.16,6.16,0,0,0-6.59-.88c-2.18.83-1.34.57-5.62,2.55s-9.68,2-13,2.49-5.51.8-7.81,2.67-.93,5.34.33,6.86S58,62.17,57.71,60c-.8-5.55,6.21-4.18,6.21-4.18s-1.45,1.34.38,4.55c2,3.51,4.9,6.55,6.47,9.13s2,5.43-1.15,7.61c-2,1.4-5.07,3.4-5.59,5.58a3.29,3.29,0,0,0,2.29,3.93,7.47,7.47,0,0,1-4.46-.76c-3.53-2-1.83-4.21-.74-5.58s2-1.83,2.79-2.91-.51-2.88-.51-2.88a8.59,8.59,0,0,1-2.92,1.43,14.54,14.54,0,0,1-5.93-.64,6.15,6.15,0,0,0-6.12,1.07s.09-3.11,5.46-3.79m50.87-12.3-2-2.29a15.17,15.17,0,0,0-1.57,2c.58.7,1.51,1.88,2,2.41.57-.78,1-1.43,1.59-2.13m119.75.24a12.25,12.25,0,0,0-1.59-2l-2,2.28c.6.69,1,1.34,1.58,2.13.51-.52,1.44-1.7,2-2.41" style="fill: #001c85"/>
</svg>
