<svg width="29" height="25" viewBox="0 0 29 25" fill="none" xmlns="http://www.w3.org/2000/svg">
<g filter="url(#filter0_d_168_69)">
<path d="M4.00001 11.2014L4.95273 9.55121L7.22172 10.8612L7.05841 10.3819C6.70855 9.33647 6.62344 8.32473 6.80309 7.34667C6.98273 6.3686 7.31073 5.46703 7.7871 4.64194C8.66837 3.11553 9.90962 2.02156 11.5108 1.36004C13.1121 0.698506 14.7595 0.599979 16.4533 1.06445L15.4529 2.79713C14.2564 2.58304 13.1075 2.73105 12.0062 3.24118C10.9049 3.75131 10.0486 4.53581 9.43727 5.59467C9.08 6.21349 8.84954 6.8826 8.74589 7.602C8.64224 8.32141 8.69503 9.07154 8.90426 9.85241L8.99144 10.1778L10.1585 8.15632L11.8087 9.10904L8.95052 14.0596L4.00001 11.2014ZM12.37 15.7587L13.3703 14.0261C14.5669 14.2402 15.7158 14.0921 16.817 13.582C17.9183 13.0719 18.7746 12.2874 19.3859 11.2285C19.7432 10.6097 19.9737 9.9406 20.0773 9.2212C20.181 8.50179 20.1282 7.75165 19.9189 6.97078L19.8318 6.64542L18.6647 8.66688L17.0145 7.71415L19.8727 2.76364L24.8232 5.62182L23.8705 7.27199L21.6015 5.96199L21.7648 6.44132C22.0496 7.50417 22.1184 8.52027 21.9713 9.48961C21.8242 10.459 21.5125 11.3562 21.0361 12.1813C20.1548 13.7077 18.9136 14.8016 17.3124 15.4632C15.7111 16.1247 14.0637 16.2232 12.37 15.7587Z" fill="#413F3F"/>
</g>
<defs>
<filter id="filter0_d_168_69" x="0" y="0.7771" width="28.8232" height="23.269" filterUnits="userSpaceOnUse" color-interpolation-filters="sRGB">
<feFlood flood-opacity="0" result="BackgroundImageFix"/>
<feColorMatrix in="SourceAlpha" type="matrix" values="0 0 0 0 0 0 0 0 0 0 0 0 0 0 0 0 0 0 127 0" result="hardAlpha"/>
<feOffset dy="4"/>
<feGaussianBlur stdDeviation="2"/>
<feComposite in2="hardAlpha" operator="out"/>
<feColorMatrix type="matrix" values="0 0 0 0 0 0 0 0 0 0 0 0 0 0 0 0 0 0 0.25 0"/>
<feBlend mode="normal" in2="BackgroundImageFix" result="effect1_dropShadow_168_69"/>
<feBlend mode="normal" in="SourceGraphic" in2="effect1_dropShadow_168_69" result="shape"/>
</filter>
</defs>
</svg>
